<svg width="20" height="20" viewBox="0 0 20 20" fill="none" xmlns="http://www.w3.org/2000/svg">
<path d="M10.4728 0.495993C10.3234 0.431949 10.1625 0.398926 9.99996 0.398926C9.83741 0.398926 9.67656 0.431949 9.52716 0.495993L1.12716 4.09599C0.910692 4.18821 0.72611 4.34203 0.596371 4.53831C0.466632 4.7346 0.397461 4.9647 0.397461 5.19999C0.397461 5.43528 0.466632 5.66538 0.596371 5.86167C0.72611 6.05796 0.910692 6.21178 1.12716 6.30399L4.29996 7.66119C4.41773 7.52799 4.56365 7.42264 4.72716 7.35279L9.52716 5.29599C9.67241 5.23126 9.82908 5.19603 9.98806 5.19237C10.147 5.18871 10.3052 5.21669 10.4532 5.27468C10.6013 5.33267 10.7364 5.41951 10.8506 5.53016C10.9648 5.6408 11.0559 5.77305 11.1186 5.91921C11.1812 6.06537 11.2142 6.22252 11.2156 6.38154C11.217 6.54056 11.1868 6.69827 11.1267 6.84551C11.0666 6.99274 10.9779 7.12656 10.8656 7.23919C10.7533 7.35183 10.6198 7.44102 10.4728 7.50159L7.20036 8.90559L9.52836 9.90279C9.67759 9.96667 9.83823 9.99961 10.0006 9.99961C10.1629 9.99961 10.3235 9.96667 10.4728 9.90279L18.8728 6.30279C19.0885 6.21023 19.2724 6.05642 19.4016 5.8604C19.5308 5.66438 19.5996 5.43476 19.5996 5.19999C19.5996 4.96522 19.5308 4.73561 19.4016 4.53959C19.2724 4.34357 19.0885 4.18975 18.8728 4.09719L10.4728 0.497193V0.495993ZM1.97196 9.27639L3.99996 10.144V15.0664C3.58446 14.9719 3.16372 14.9022 2.73996 14.8576C2.46653 14.8289 2.21126 14.7071 2.01686 14.5127C1.82245 14.3183 1.7007 14.063 1.67196 13.7896C1.51415 12.2787 1.61561 10.7519 1.97196 9.27519V9.27639ZM9.15996 17.8876C8.34878 17.0917 7.41738 16.4283 6.39996 15.922V11.1736L8.58156 12.1096C9.02976 12.3017 9.51232 12.4008 9.99996 12.4008C10.4876 12.4008 10.9702 12.3017 11.4184 12.1096L18.028 9.27639C18.3864 10.7528 18.4879 12.2799 18.328 13.7908C18.2992 14.0642 18.1775 14.3195 17.9831 14.5139C17.7887 14.7083 17.5334 14.8301 17.26 14.8588C14.839 15.1132 12.5758 16.1809 10.84 17.8876C10.6156 18.1075 10.3141 18.2306 9.99996 18.2306C9.68586 18.2306 9.38427 18.1075 9.15996 17.8876ZM5.19996 19.6C5.51822 19.6 5.82344 19.4736 6.04849 19.2485C6.27353 19.0235 6.39996 18.7183 6.39996 18.4V15.922C5.63676 15.5428 4.83107 15.256 3.99996 15.0676V18.4C3.99996 18.7183 4.12639 19.0235 4.35143 19.2485C4.57647 19.4736 4.8817 19.6 5.19996 19.6Z" fill="#DEA34B"/>
</svg>
