<svg width="18" height="24" viewBox="0 0 18 24" fill="none" xmlns="http://www.w3.org/2000/svg">
<path d="M12.3926 18L12.5659 21.5156L9.00987 19.0443L5.43392 21.5179L5.6074 18H4.10557L3.84673 23.25H5.56667L9.0079 20.8697L12.4332 23.25H14.1532L13.8944 18H12.3926ZM16.4723 7.26157L16.3694 5.00904L14.4703 3.79371L13.2547 1.89438L11.0022 1.79126L8.99998 0.754333L6.99781 1.79149L4.74523 1.89461L3.52967 3.79371L1.63053 5.00904L1.52768 7.26157L0.490479 9.26379L1.52768 11.2661L1.63081 13.5185L3.52967 14.7339L4.74504 16.6332L6.99762 16.7361L8.99998 17.7733L11.0022 16.7361L13.2547 16.6332L14.4701 14.7339L16.3694 13.5187L16.4723 11.2662L17.5095 9.26397L16.4723 7.26157ZM14.9889 10.8686L14.9062 12.6739L13.384 13.648L12.4099 15.1702L10.6045 15.2527L8.99998 16.084L7.39526 15.2527L5.58987 15.1702L4.61581 13.648L3.09373 12.6739L3.01128 10.8686L2.17967 9.26379L3.01109 7.65935L3.09373 5.85372L4.61581 4.87966L5.58987 3.35744L7.39526 3.27494L8.99998 2.44366L10.6047 3.2749L12.4101 3.3574L13.3842 4.87961L14.9062 5.85372L14.9887 7.65911L15.8203 9.26379L14.9889 10.8686Z" fill="#DEA34B"/>
</svg>
