<svg width="22" height="18" viewBox="0 0 22 18" fill="none" xmlns="http://www.w3.org/2000/svg">
<path d="M19.75 1.20001H2.25C1.69772 1.20001 1.25 1.64773 1.25 2.20001V15.8C1.25 16.3523 1.69772 16.8 2.25 16.8H19.75C20.3023 16.8 20.75 16.3523 20.75 15.8V2.20001C20.75 1.64773 20.3023 1.20001 19.75 1.20001Z" stroke="#4BDE97" stroke-linecap="round" stroke-linejoin="round"/>
<path d="M18.25 3.20001H3.75C3.47386 3.20001 3.25 3.42387 3.25 3.70001V14.3C3.25 14.5762 3.47386 14.8 3.75 14.8H18.25C18.5261 14.8 18.75 14.5762 18.75 14.3V3.70001C18.75 3.42387 18.5261 3.20001 18.25 3.20001Z" stroke="#4BDE97" stroke-linecap="round" stroke-linejoin="round"/>
<path d="M13.84 13.705H17.15V14.8H13.84V13.705ZM11.92 6.49999C11.7993 6.37905 11.6558 6.2831 11.498 6.21763C11.3401 6.15217 11.1709 6.11847 11 6.11847C10.8291 6.11847 10.6599 6.15217 10.502 6.21763C10.3441 6.2831 10.2007 6.37905 10.08 6.49999V6.49999C9.929 6.65173 9.81764 6.83829 9.75576 7.04322C9.69387 7.24815 9.68334 7.46516 9.72511 7.67512C9.76688 7.88508 9.85966 8.08154 9.99526 8.24718C10.1309 8.41282 10.3051 8.54256 10.5027 8.62496C10.7003 8.70735 10.9151 8.73988 11.1282 8.71967C11.3413 8.69946 11.5462 8.62714 11.7248 8.50907C11.9034 8.391 12.0501 8.23081 12.1522 8.04263C12.2542 7.85445 12.3084 7.64406 12.31 7.42999C12.3107 7.25583 12.2755 7.0834 12.2067 6.92341C12.1379 6.76342 12.0369 6.6193 11.91 6.49999H11.92ZM10 9.76499H12C12.3978 9.76499 12.7794 9.92303 13.0607 10.2043C13.342 10.4856 13.5 10.8672 13.5 11.265V11.87H8.5V11.265C8.5 10.8672 8.65803 10.4856 8.93933 10.2043C9.22064 9.92303 9.60217 9.76499 10 9.76499ZM7.71 7.73499C7.61703 7.64126 7.50643 7.56687 7.38457 7.5161C7.26271 7.46533 7.13201 7.43919 7 7.43919C6.86798 7.43919 6.73728 7.46533 6.61542 7.5161C6.49356 7.56687 6.38296 7.64126 6.29 7.73499C6.17481 7.85117 6.08989 7.99383 6.04267 8.15046C5.99546 8.3071 5.98739 8.47292 6.01919 8.6334C6.05098 8.79388 6.12166 8.9441 6.22502 9.07091C6.32839 9.19771 6.46129 9.29722 6.61206 9.3607C6.76284 9.42419 6.92689 9.44971 7.08983 9.43503C7.25276 9.42036 7.40961 9.36593 7.54662 9.27653C7.68362 9.18712 7.7966 9.06547 7.87565 8.92224C7.95469 8.77901 7.99739 8.61857 8 8.45499C8.00011 8.32184 7.97363 8.19001 7.92212 8.06723C7.8706 7.94445 7.79508 7.8332 7.7 7.73999L7.71 7.73499Z" stroke="#4BDE97" stroke-linecap="round" stroke-linejoin="round"/>
<path d="M8.67 10.57C8.57663 10.4679 8.4631 10.3864 8.33659 10.3304C8.21007 10.2745 8.07333 10.2454 7.935 10.245H6.065C5.79979 10.245 5.54543 10.3504 5.3579 10.5379C5.17036 10.7254 5.065 10.9798 5.065 11.245V11.87H8.5M13.5 11.87H16.93V11.245C16.93 10.9798 16.8246 10.7254 16.6371 10.5379C16.4496 10.3504 16.1952 10.245 15.93 10.245H14.065C13.9267 10.2454 13.7899 10.2745 13.6634 10.3304C13.5369 10.3864 13.4234 10.4679 13.33 10.57M15.71 7.73501C15.617 7.64128 15.5064 7.56688 15.3846 7.51612C15.2627 7.46535 15.132 7.43921 15 7.43921C14.868 7.43921 14.7373 7.46535 14.6154 7.51612C14.4936 7.56688 14.383 7.64128 14.29 7.73501C14.1748 7.85118 14.0899 7.99384 14.0427 8.15048C13.9955 8.30711 13.9874 8.47294 14.0192 8.63342C14.051 8.79389 14.1217 8.94412 14.225 9.07092C14.3284 9.19773 14.4613 9.29723 14.6121 9.36072C14.7628 9.4242 14.9269 9.44973 15.0898 9.43505C15.2528 9.42037 15.4096 9.36595 15.5466 9.27654C15.6836 9.18714 15.7966 9.06549 15.8757 8.92225C15.9547 8.77902 15.9974 8.61858 16 8.45501C16.0001 8.32186 15.9736 8.19003 15.9221 8.06725C15.8706 7.94447 15.7951 7.83321 15.7 7.74001L15.71 7.73501Z" stroke="#4BDE97" stroke-linecap="round" stroke-linejoin="round"/>
</svg>
