<svg width="146" height="55" viewBox="0 0 146 55" fill="none" xmlns="http://www.w3.org/2000/svg">
<rect width="146" height="55" rx="13" fill="#060B1D"/>
<path d="M26.3111 24.2898H24.1861C24.1255 23.9413 24.0137 23.6326 23.8509 23.3636C23.688 23.0909 23.4853 22.8598 23.2429 22.6705C23.0005 22.4811 22.724 22.339 22.4134 22.2443C22.1065 22.1458 21.7751 22.0966 21.419 22.0966C20.7865 22.0966 20.2259 22.2557 19.7372 22.5739C19.2486 22.8883 18.866 23.3504 18.5895 23.9602C18.313 24.5663 18.1747 25.3068 18.1747 26.1818C18.1747 27.072 18.313 27.822 18.5895 28.4318C18.8698 29.0379 19.2524 29.4962 19.7372 29.8068C20.2259 30.1136 20.7846 30.267 21.4134 30.267C21.7618 30.267 22.0876 30.2216 22.3906 30.1307C22.6974 30.036 22.9721 29.8977 23.2145 29.7159C23.4607 29.5341 23.6671 29.3106 23.8338 29.0455C24.0043 28.7803 24.1217 28.4773 24.1861 28.1364L26.3111 28.1477C26.2315 28.7008 26.0592 29.2197 25.794 29.7045C25.5327 30.1894 25.1899 30.6174 24.7656 30.9886C24.3414 31.3561 23.8452 31.6439 23.277 31.8523C22.7088 32.0568 22.0781 32.1591 21.3849 32.1591C20.3622 32.1591 19.4493 31.9223 18.6463 31.4489C17.8433 30.9754 17.2107 30.2917 16.7486 29.3977C16.2865 28.5038 16.0554 27.4318 16.0554 26.1818C16.0554 24.928 16.2884 23.8561 16.7543 22.9659C17.2202 22.072 17.8546 21.3883 18.6577 20.9148C19.4607 20.4413 20.3698 20.2045 21.3849 20.2045C22.0327 20.2045 22.6349 20.2955 23.1918 20.4773C23.7486 20.6591 24.2448 20.9261 24.6804 21.2784C25.116 21.6269 25.474 22.0549 25.7543 22.5625C26.0384 23.0663 26.224 23.642 26.3111 24.2898ZM31.9574 32.1705C31.1051 32.1705 30.3665 31.983 29.7415 31.608C29.1165 31.233 28.6316 30.7083 28.2869 30.0341C27.946 29.3598 27.7756 28.572 27.7756 27.6705C27.7756 26.7689 27.946 25.9792 28.2869 25.3011C28.6316 24.6231 29.1165 24.0966 29.7415 23.7216C30.3665 23.3466 31.1051 23.1591 31.9574 23.1591C32.8097 23.1591 33.5483 23.3466 34.1733 23.7216C34.7983 24.0966 35.2813 24.6231 35.6222 25.3011C35.9669 25.9792 36.1392 26.7689 36.1392 27.6705C36.1392 28.572 35.9669 29.3598 35.6222 30.0341C35.2813 30.7083 34.7983 31.233 34.1733 31.608C33.5483 31.983 32.8097 32.1705 31.9574 32.1705ZM31.9688 30.5227C32.4309 30.5227 32.8172 30.3958 33.1278 30.142C33.4384 29.8845 33.6695 29.5398 33.821 29.108C33.9763 28.6761 34.054 28.1951 34.054 27.6648C34.054 27.1307 33.9763 26.6477 33.821 26.2159C33.6695 25.7803 33.4384 25.4337 33.1278 25.1761C32.8172 24.9186 32.4309 24.7898 31.9688 24.7898C31.4953 24.7898 31.1013 24.9186 30.7869 25.1761C30.4763 25.4337 30.2434 25.7803 30.0881 26.2159C29.9366 26.6477 29.8608 27.1307 29.8608 27.6648C29.8608 28.1951 29.9366 28.6761 30.0881 29.108C30.2434 29.5398 30.4763 29.8845 30.7869 30.142C31.1013 30.3958 31.4953 30.5227 31.9688 30.5227ZM39.9418 26.8864V32H37.8849V23.2727H39.8509V24.7557H39.9531C40.1539 24.267 40.474 23.8788 40.9134 23.5909C41.3565 23.303 41.9039 23.1591 42.5554 23.1591C43.1577 23.1591 43.6823 23.2879 44.1293 23.5455C44.58 23.803 44.9285 24.1761 45.1747 24.6648C45.4247 25.1534 45.5478 25.7462 45.544 26.4432V32H43.4872V26.7614C43.4872 26.178 43.3357 25.7216 43.0327 25.392C42.7334 25.0625 42.3187 24.8977 41.7884 24.8977C41.4285 24.8977 41.1084 24.9773 40.8281 25.1364C40.5516 25.2917 40.3338 25.517 40.1747 25.8125C40.0194 26.108 39.9418 26.4659 39.9418 26.8864ZM51.9929 23.2727V24.8636H46.9759V23.2727H51.9929ZM48.2145 21.1818H50.2713V29.375C50.2713 29.6515 50.313 29.8636 50.3963 30.0114C50.4834 30.1553 50.5971 30.2538 50.7372 30.3068C50.8774 30.3598 51.0327 30.3864 51.2031 30.3864C51.3319 30.3864 51.4493 30.3769 51.5554 30.358C51.6652 30.339 51.7486 30.322 51.8054 30.3068L52.152 31.9148C52.0421 31.9527 51.8849 31.9943 51.6804 32.0398C51.4796 32.0852 51.2334 32.1117 50.9418 32.1193C50.4266 32.1345 49.9626 32.0568 49.5497 31.8864C49.1368 31.7121 48.8092 31.4432 48.5668 31.0795C48.3281 30.7159 48.2107 30.2614 48.2145 29.7159V21.1818ZM56.2244 32.1761C55.6714 32.1761 55.1733 32.0777 54.7301 31.8807C54.2907 31.6799 53.9422 31.3845 53.6847 30.9943C53.4309 30.6042 53.304 30.1231 53.304 29.5511C53.304 29.0587 53.3949 28.6515 53.5767 28.3295C53.7585 28.0076 54.0066 27.75 54.321 27.5568C54.6354 27.3636 54.9896 27.2178 55.3835 27.1193C55.7813 27.017 56.1922 26.9432 56.6165 26.8977C57.1278 26.8447 57.5426 26.7973 57.8608 26.7557C58.179 26.7102 58.41 26.642 58.554 26.5511C58.7017 26.4564 58.7756 26.3106 58.7756 26.1136V26.0795C58.7756 25.6515 58.6487 25.3201 58.3949 25.0852C58.1411 24.8504 57.7756 24.733 57.2983 24.733C56.7945 24.733 56.3949 24.8428 56.0994 25.0625C55.8078 25.2822 55.6108 25.5417 55.5085 25.8409L53.5881 25.5682C53.7396 25.0379 53.9896 24.5947 54.3381 24.2386C54.6866 23.8788 55.1127 23.6098 55.6165 23.4318C56.1203 23.25 56.6771 23.1591 57.2869 23.1591C57.7074 23.1591 58.1259 23.2083 58.5426 23.3068C58.9593 23.4053 59.34 23.5682 59.6847 23.7955C60.0294 24.0189 60.3059 24.3239 60.5142 24.7102C60.7263 25.0966 60.8324 25.5795 60.8324 26.1591V32H58.8551V30.8011H58.7869C58.6619 31.0436 58.4858 31.2708 58.2585 31.483C58.035 31.6913 57.7528 31.8598 57.4119 31.9886C57.0748 32.1136 56.679 32.1761 56.2244 32.1761ZM56.7585 30.6648C57.1714 30.6648 57.5294 30.5833 57.8324 30.4205C58.1354 30.2538 58.3684 30.0341 58.5312 29.7614C58.6979 29.4886 58.7812 29.1913 58.7812 28.8693V27.8409C58.7169 27.8939 58.607 27.9432 58.4517 27.9886C58.3002 28.0341 58.1297 28.0739 57.9403 28.108C57.7509 28.142 57.5634 28.1723 57.3778 28.1989C57.1922 28.2254 57.0313 28.2481 56.8949 28.267C56.5881 28.3087 56.3134 28.3769 56.071 28.4716C55.8286 28.5663 55.6373 28.6989 55.4972 28.8693C55.357 29.036 55.2869 29.2519 55.2869 29.517C55.2869 29.8958 55.4252 30.1818 55.7017 30.375C55.9782 30.5682 56.3305 30.6648 56.7585 30.6648ZM66.7074 32.1705C65.8362 32.1705 65.0881 31.9792 64.4631 31.5966C63.8419 31.214 63.3627 30.6856 63.0256 30.0114C62.6922 29.3333 62.5256 28.553 62.5256 27.6705C62.5256 26.7841 62.696 26.0019 63.0369 25.3239C63.3778 24.642 63.8589 24.1117 64.4801 23.733C65.1051 23.3504 65.8438 23.1591 66.696 23.1591C67.4044 23.1591 68.0313 23.2898 68.5767 23.5511C69.1259 23.8087 69.5634 24.1742 69.8892 24.6477C70.215 25.1174 70.4006 25.6667 70.446 26.2955H68.4801C68.4006 25.875 68.2112 25.5246 67.9119 25.2443C67.6165 24.9602 67.2206 24.8182 66.7244 24.8182C66.304 24.8182 65.9347 24.9318 65.6165 25.1591C65.2983 25.3826 65.0502 25.7045 64.8722 26.125C64.6979 26.5455 64.6108 27.0492 64.6108 27.6364C64.6108 28.2311 64.6979 28.7424 64.8722 29.1705C65.0464 29.5947 65.2907 29.9223 65.6051 30.1534C65.9233 30.3807 66.2964 30.4943 66.7244 30.4943C67.0275 30.4943 67.2983 30.4375 67.5369 30.3239C67.7794 30.2064 67.982 30.0379 68.1449 29.8182C68.3078 29.5985 68.4195 29.3314 68.4801 29.017H70.446C70.3968 29.6345 70.215 30.1818 69.9006 30.6591C69.5862 31.1326 69.1581 31.5038 68.6165 31.7727C68.0748 32.0379 67.4384 32.1705 66.7074 32.1705ZM76.4929 23.2727V24.8636H71.4759V23.2727H76.4929ZM72.7145 21.1818H74.7713V29.375C74.7713 29.6515 74.813 29.8636 74.8963 30.0114C74.9834 30.1553 75.0971 30.2538 75.2372 30.3068C75.3774 30.3598 75.5327 30.3864 75.7031 30.3864C75.8319 30.3864 75.9493 30.3769 76.0554 30.358C76.1652 30.339 76.2486 30.322 76.3054 30.3068L76.652 31.9148C76.5421 31.9527 76.3849 31.9943 76.1804 32.0398C75.9796 32.0852 75.7334 32.1117 75.4418 32.1193C74.9266 32.1345 74.4626 32.0568 74.0497 31.8864C73.6368 31.7121 73.3092 31.4432 73.0668 31.0795C72.8281 30.7159 72.7107 30.2614 72.7145 29.7159V21.1818ZM83.767 32H81.517L85.6136 20.3636H88.2159L92.3182 32H90.0682L86.9602 22.75H86.8693L83.767 32ZM83.8409 27.4375H89.9773V29.1307H83.8409V27.4375ZM96.733 32.1534C96.0473 32.1534 95.4337 31.9773 94.892 31.625C94.3504 31.2727 93.9223 30.7614 93.608 30.0909C93.2936 29.4205 93.1364 28.6061 93.1364 27.6477C93.1364 26.678 93.2955 25.8598 93.6136 25.1932C93.9356 24.5227 94.3693 24.017 94.9148 23.6761C95.4602 23.3314 96.0682 23.1591 96.7386 23.1591C97.25 23.1591 97.6705 23.2462 98 23.4205C98.3295 23.5909 98.5909 23.7973 98.7841 24.0398C98.9773 24.2784 99.1269 24.5038 99.233 24.7159H99.3182V20.3636H101.381V32H99.358V30.625H99.233C99.1269 30.8371 98.9735 31.0625 98.7727 31.3011C98.572 31.536 98.3068 31.7367 97.9773 31.9034C97.6477 32.0701 97.233 32.1534 96.733 32.1534ZM97.3068 30.4659C97.7424 30.4659 98.1136 30.3485 98.4205 30.1136C98.7273 29.875 98.9602 29.5436 99.1193 29.1193C99.2784 28.6951 99.358 28.2008 99.358 27.6364C99.358 27.072 99.2784 26.5814 99.1193 26.1648C98.964 25.7481 98.733 25.4242 98.4261 25.1932C98.1231 24.9621 97.75 24.8466 97.3068 24.8466C96.8485 24.8466 96.4659 24.9659 96.1591 25.2045C95.8523 25.4432 95.6212 25.7727 95.4659 26.1932C95.3106 26.6136 95.233 27.0947 95.233 27.6364C95.233 28.1818 95.3106 28.6686 95.4659 29.0966C95.625 29.5208 95.858 29.8561 96.1648 30.1023C96.4754 30.3447 96.8561 30.4659 97.3068 30.4659ZM103.572 32V23.2727H105.538V24.7557H105.641C105.822 24.2557 106.124 23.8655 106.544 23.5852C106.964 23.3011 107.466 23.1591 108.05 23.1591C108.641 23.1591 109.139 23.303 109.544 23.5909C109.953 23.875 110.241 24.2633 110.408 24.7557H110.499C110.692 24.2708 111.018 23.8845 111.476 23.5966C111.938 23.3049 112.485 23.1591 113.118 23.1591C113.921 23.1591 114.576 23.4129 115.084 23.9205C115.591 24.428 115.845 25.1686 115.845 26.142V32H113.783V26.4602C113.783 25.9186 113.639 25.5227 113.351 25.2727C113.063 25.0189 112.711 24.892 112.294 24.892C111.798 24.892 111.41 25.0473 111.129 25.358C110.853 25.6648 110.714 26.0644 110.714 26.5568V32H108.697V26.375C108.697 25.9242 108.561 25.5644 108.288 25.2955C108.019 25.0265 107.667 24.892 107.232 24.892C106.936 24.892 106.667 24.9678 106.425 25.1193C106.182 25.267 105.989 25.4773 105.845 25.75C105.701 26.0189 105.629 26.3333 105.629 26.6932V32H103.572ZM117.932 32V23.2727H119.989V32H117.932ZM118.966 22.0341C118.64 22.0341 118.36 21.9261 118.125 21.7102C117.89 21.4905 117.773 21.2273 117.773 20.9205C117.773 20.6098 117.89 20.3466 118.125 20.1307C118.36 19.911 118.64 19.8011 118.966 19.8011C119.295 19.8011 119.576 19.911 119.807 20.1307C120.042 20.3466 120.159 20.6098 120.159 20.9205C120.159 21.2273 120.042 21.4905 119.807 21.7102C119.576 21.9261 119.295 22.0341 118.966 22.0341ZM124.161 26.8864V32H122.104V23.2727H124.07V24.7557H124.172C124.373 24.267 124.693 23.8788 125.132 23.5909C125.575 23.303 126.123 23.1591 126.774 23.1591C127.376 23.1591 127.901 23.2879 128.348 23.5455C128.799 23.803 129.147 24.1761 129.393 24.6648C129.643 25.1534 129.767 25.7462 129.763 26.4432V32H127.706V26.7614C127.706 26.178 127.554 25.7216 127.251 25.392C126.952 25.0625 126.537 24.8977 126.007 24.8977C125.647 24.8977 125.327 24.9773 125.047 25.1364C124.77 25.2917 124.553 25.517 124.393 25.8125C124.238 26.108 124.161 26.4659 124.161 26.8864Z" fill="#F19CFF"/>
</svg>
