<svg width="24" height="24" viewBox="0 0 24 24" fill="none" xmlns="http://www.w3.org/2000/svg">
<path d="M20.7 17.85L18.85 16H20V5.00001H7.85001L5.85001 3.00001H20C20.55 3.00001 21.021 3.19567 21.413 3.58701C21.8043 3.97901 22 4.45001 22 5.00001V16C22 16.4167 21.8793 16.7917 21.638 17.125C21.396 17.4583 21.0833 17.7 20.7 17.85V17.85ZM20.5 23.3L15.15 18H14V20H16V22H8.00001V20H10V18H4.00001C3.45001 18 2.97935 17.8043 2.58801 17.413C2.19601 17.021 2.00001 16.55 2.00001 16V4.85001L0.700012 3.50001L2.10001 2.10001L21.9 21.9L20.5 23.3ZM13.15 16L4.00001 6.80001V16H13.15Z" fill="#5F2EEA"/>
</svg>
