<svg width="60" height="45" viewBox="0 0 60 45" fill="none" xmlns="http://www.w3.org/2000/svg">
<g clip-path="url(#clip0_213_827)">
<path d="M13.6364 44.7785V21.7166L6.44695 15.1734L0 11.5424V40.7087C0 42.9605 1.83398 44.7785 4.09102 44.7785H13.6364Z" fill="#4285F4"/>
<path d="M46.3638 44.7785H55.9092C58.173 44.7785 60.0002 42.9538 60.0002 40.7087V11.5426L52.698 15.7015L46.3638 21.7166V44.7785Z" fill="#34A853"/>
<path d="M13.6365 21.7166L12.6582 12.7056L13.6365 4.08124L30.0001 16.2905L46.3637 4.08124L47.458 12.24L46.3637 21.7166L30.0001 33.9258L13.6365 21.7166Z" fill="#EA4335"/>
<path d="M46.3638 4.08148V21.7168L60.0002 11.5426V6.11627C60.0002 1.0835 54.2252 -1.78554 50.1822 1.23272L46.3638 4.08148Z" fill="#FBBC04"/>
<path d="M0 11.5423L6.27164 16.2218L13.6364 21.7165V4.08116L9.81797 1.2324C5.76797 -1.7861 0 1.08318 0 6.11572V11.5421V11.5423Z" fill="#C5221F"/>
</g>
<defs>
<clipPath id="clip0_213_827">
<rect width="60" height="45" fill="white"/>
</clipPath>
</defs>
</svg>
