<svg width="37" height="39" viewBox="0 0 37 39" fill="none" xmlns="http://www.w3.org/2000/svg">
<path d="M14.355 38.785C12.373 38.785 10.7663 37.3567 10.7663 35.5949H17.9438C17.9438 37.3567 16.337 38.785 14.355 38.785ZM28.71 33.9999H0V30.8099L3.58875 29.2149V20.4424C3.58875 14.9206 6.13856 11.3398 10.7663 10.362V6.88495H16.1494C14.9794 8.26293 14.3491 9.94355 14.355 11.6699C14.3549 12.0709 14.3885 12.4713 14.4555 12.8678H14.355C12.1656 12.7417 10.0539 13.6121 8.74758 15.1789C7.63066 16.7493 7.08265 18.5865 7.1775 20.4424V30.8099H21.5325V20.4424C21.5325 20.1059 21.5199 19.7821 21.4948 19.4854C22.6817 19.7034 23.9058 19.7072 25.0943 19.4966C25.1141 19.8332 25.1213 20.1538 25.1213 20.4536V29.2149L28.71 30.8099V33.9999Z" fill="#495275"/>
<circle cx="24.5" cy="12.5" r="12.5" fill="#F19CFF"/>
<path d="M23.995 18.1591C23.12 18.1591 22.3416 18.017 21.6598 17.733C20.9818 17.4451 20.4496 17.053 20.0632 16.5568C19.6768 16.0606 19.4837 15.4981 19.4837 14.8693C19.4837 14.3845 19.5935 13.9394 19.8132 13.5341C20.0367 13.125 20.3397 12.786 20.7223 12.517C21.1049 12.2443 21.5329 12.0701 22.0064 11.9943V11.9148C21.3852 11.7898 20.8814 11.4886 20.495 11.0114C20.1087 10.5303 19.9155 9.97159 19.9155 9.33523C19.9155 8.73295 20.0916 8.19697 20.4439 7.72727C20.7962 7.25379 21.2791 6.88258 21.8928 6.61364C22.5102 6.34091 23.2109 6.20455 23.995 6.20455C24.7791 6.20455 25.478 6.34091 26.0916 6.61364C26.709 6.88636 27.1939 7.25947 27.5462 7.73295C27.8984 8.20265 28.0765 8.73674 28.0803 9.33523C28.0765 9.97538 27.8795 10.5341 27.4893 11.0114C27.0992 11.4886 26.5992 11.7898 25.9893 11.9148V11.9943C26.4553 12.0701 26.8776 12.2443 27.2564 12.517C27.639 12.786 27.942 13.125 28.1655 13.5341C28.3928 13.9394 28.5083 14.3845 28.5121 14.8693C28.5083 15.4981 28.3132 16.0606 27.9268 16.5568C27.5405 17.053 27.0064 17.4451 26.3246 17.733C25.6465 18.017 24.87 18.1591 23.995 18.1591ZM23.995 16.3523C24.3852 16.3523 24.7261 16.2822 25.0178 16.142C25.3094 15.9981 25.5367 15.8011 25.6996 15.5511C25.8662 15.2973 25.9496 15.0057 25.9496 14.6761C25.9496 14.339 25.8643 14.0417 25.6939 13.7841C25.5234 13.5227 25.2924 13.3182 25.0007 13.1705C24.709 13.0189 24.3738 12.9432 23.995 12.9432C23.62 12.9432 23.2848 13.0189 22.9893 13.1705C22.6939 13.3182 22.4609 13.5227 22.2905 13.7841C22.1238 14.0417 22.0405 14.339 22.0405 14.6761C22.0405 15.0057 22.1219 15.2973 22.2848 15.5511C22.4477 15.8011 22.6768 15.9981 22.9723 16.142C23.2678 16.2822 23.6087 16.3523 23.995 16.3523ZM23.995 11.1534C24.3208 11.1534 24.6106 11.0871 24.8643 10.9545C25.1181 10.822 25.317 10.6383 25.4609 10.4034C25.6049 10.1686 25.6768 9.89773 25.6768 9.59091C25.6768 9.28788 25.6049 9.02273 25.4609 8.79545C25.317 8.56439 25.12 8.38447 24.87 8.25568C24.62 8.12311 24.3284 8.05682 23.995 8.05682C23.6655 8.05682 23.3738 8.12311 23.12 8.25568C22.8662 8.38447 22.6674 8.56439 22.5234 8.79545C22.3833 9.02273 22.3132 9.28788 22.3132 9.59091C22.3132 9.89773 22.3852 10.1686 22.5291 10.4034C22.6731 10.6383 22.8719 10.822 23.1257 10.9545C23.3795 11.0871 23.6693 11.1534 23.995 11.1534Z" fill="#001224"/>
</svg>
