<svg width="28" height="28" viewBox="0 0 28 28" fill="none" xmlns="http://www.w3.org/2000/svg">
<rect width="28" height="28" rx="8" fill="#273250"/>
<path d="M14.8401 22.4H13.1601V19.88H14.8401V22.4ZM19.3459 20.5335L17.5642 18.7519L18.752 17.5641L20.5345 19.3466L19.3475 20.5335H19.3459ZM8.65434 20.5335L7.46574 19.3457L9.24654 17.5633L10.4351 18.751L8.65434 20.5327V20.5335ZM14.0001 18.2059C11.6775 18.2049 9.79528 16.3215 9.7959 13.9989C9.79652 11.6762 11.6797 9.79379 14.0023 9.7941C16.325 9.7944 18.2077 11.6774 18.2077 14C18.2053 16.3225 16.3226 18.2045 14.0001 18.2059ZM14.0001 11.4741C12.6053 11.475 11.4753 12.6063 11.4759 14.0011C11.4765 15.3959 12.6076 16.5262 14.0023 16.5259C15.3971 16.5255 16.5277 15.3948 16.5277 14C16.5263 12.6049 15.3952 11.4746 14.0001 11.4741ZM22.4001 14.84H19.8801V13.16H22.4001V14.84ZM8.1201 14.84H5.6001V13.16H8.1201V14.84ZM18.7511 10.4367L17.5642 9.2481L19.3459 7.46562L20.5345 8.65422L18.752 10.4359L18.7511 10.4367ZM9.24822 10.4367L7.46742 8.65506L8.65602 7.4673L10.4368 9.24978L9.24906 10.4359L9.24822 10.4367ZM14.8401 8.11998H13.1601V5.59998H14.8401V8.11998Z" fill="white"/>
</svg>
