<svg width="3113" height="933" viewBox="0 0 3113 933" fill="none" xmlns="http://www.w3.org/2000/svg">
<rect width="1369" height="933" fill="#040E2F"/>
<rect x="1409" width="335" height="933" fill="#0C1228"/>
<rect x="1744" width="1369" height="933" fill="#040E2F"/>
<path d="M1822.15 206V184.182H1836.34V187.495H1826.1V193.418H1835.61V196.732H1826.1V202.687H1836.43V206H1822.15ZM1840.2 206V189.636H1843.89V192.417H1844.08C1844.42 191.479 1844.99 190.748 1845.78 190.222C1846.56 189.69 1847.51 189.423 1848.6 189.423C1849.71 189.423 1850.64 189.693 1851.4 190.233C1852.17 190.766 1852.71 191.494 1853.02 192.417H1853.19C1853.55 191.508 1854.16 190.783 1855.02 190.244C1855.89 189.697 1856.92 189.423 1858.1 189.423C1859.61 189.423 1860.84 189.899 1861.79 190.851C1862.74 191.803 1863.22 193.191 1863.22 195.016V206H1859.35V195.613C1859.35 194.597 1859.08 193.855 1858.54 193.386C1858 192.911 1857.34 192.673 1856.56 192.673C1855.63 192.673 1854.9 192.964 1854.37 193.546C1853.85 194.121 1853.6 194.871 1853.6 195.794V206H1849.81V195.453C1849.81 194.608 1849.56 193.933 1849.05 193.429C1848.54 192.925 1847.88 192.673 1847.06 192.673C1846.51 192.673 1846.01 192.815 1845.55 193.099C1845.1 193.376 1844.74 193.77 1844.47 194.281C1844.2 194.786 1844.06 195.375 1844.06 196.05V206H1840.2ZM1871.84 206.33C1870.8 206.33 1869.87 206.146 1869.03 205.776C1868.21 205.4 1867.56 204.846 1867.07 204.114C1866.6 203.383 1866.36 202.481 1866.36 201.408C1866.36 200.485 1866.53 199.722 1866.87 199.118C1867.21 198.514 1867.68 198.031 1868.27 197.669C1868.86 197.307 1869.52 197.033 1870.26 196.849C1871.01 196.657 1871.78 196.518 1872.57 196.433C1873.53 196.334 1874.31 196.245 1874.91 196.167C1875.5 196.082 1875.93 195.954 1876.2 195.783C1876.48 195.606 1876.62 195.332 1876.62 194.963V194.899C1876.62 194.097 1876.38 193.475 1875.91 193.035C1875.43 192.594 1874.75 192.374 1873.85 192.374C1872.91 192.374 1872.16 192.58 1871.6 192.992C1871.06 193.404 1870.69 193.891 1870.49 194.452L1866.89 193.94C1867.18 192.946 1867.65 192.115 1868.3 191.447C1868.95 190.773 1869.75 190.268 1870.7 189.935C1871.64 189.594 1872.69 189.423 1873.83 189.423C1874.62 189.423 1875.4 189.516 1876.18 189.7C1876.96 189.885 1877.68 190.19 1878.32 190.616C1878.97 191.036 1879.49 191.607 1879.88 192.332C1880.28 193.056 1880.48 193.962 1880.48 195.048V206H1876.77V203.752H1876.64C1876.41 204.207 1876.08 204.633 1875.65 205.031C1875.23 205.421 1874.7 205.737 1874.06 205.979C1873.43 206.213 1872.69 206.33 1871.84 206.33ZM1872.84 203.496C1873.61 203.496 1874.28 203.344 1874.85 203.038C1875.42 202.726 1875.86 202.314 1876.16 201.803C1876.47 201.291 1876.63 200.734 1876.63 200.13V198.202C1876.51 198.301 1876.3 198.393 1876.01 198.479C1875.73 198.564 1875.41 198.638 1875.05 198.702C1874.7 198.766 1874.35 198.823 1874 198.873C1873.65 198.923 1873.35 198.965 1873.09 199.001C1872.52 199.079 1872 199.207 1871.55 199.384C1871.09 199.562 1870.74 199.81 1870.47 200.13C1870.21 200.442 1870.08 200.847 1870.08 201.344C1870.08 202.055 1870.34 202.591 1870.86 202.953C1871.38 203.315 1872.04 203.496 1872.84 203.496ZM1884.35 206V189.636H1888.21V206H1884.35ZM1886.29 187.314C1885.68 187.314 1885.16 187.112 1884.72 186.707C1884.28 186.295 1884.06 185.801 1884.06 185.226C1884.06 184.643 1884.28 184.15 1884.72 183.745C1885.16 183.333 1885.68 183.127 1886.29 183.127C1886.91 183.127 1887.44 183.333 1887.87 183.745C1888.31 184.15 1888.53 184.643 1888.53 185.226C1888.53 185.801 1888.31 186.295 1887.87 186.707C1887.44 187.112 1886.91 187.314 1886.29 187.314ZM1896.03 184.182V206H1892.18V184.182H1896.03ZM1912.93 193.962L1909.42 194.345C1909.32 193.99 1909.14 193.656 1908.89 193.344C1908.65 193.031 1908.33 192.779 1907.91 192.587C1907.5 192.396 1907 192.3 1906.4 192.3C1905.6 192.3 1904.92 192.474 1904.38 192.822C1903.84 193.17 1903.57 193.621 1903.58 194.175C1903.57 194.651 1903.75 195.038 1904.1 195.336C1904.46 195.634 1905.06 195.879 1905.89 196.071L1908.68 196.668C1910.23 197.001 1911.38 197.531 1912.13 198.255C1912.89 198.979 1913.28 199.928 1913.28 201.099C1913.28 202.129 1912.97 203.038 1912.38 203.827C1911.79 204.608 1910.97 205.219 1909.92 205.659C1908.87 206.099 1907.66 206.32 1906.3 206.32C1904.29 206.32 1902.68 205.901 1901.46 205.062C1900.24 204.217 1899.51 203.042 1899.27 201.536L1903.04 201.174C1903.21 201.913 1903.57 202.47 1904.12 202.847C1904.68 203.223 1905.4 203.411 1906.28 203.411C1907.2 203.411 1907.94 203.223 1908.49 202.847C1909.05 202.47 1909.33 202.005 1909.33 201.451C1909.33 200.982 1909.15 200.595 1908.79 200.29C1908.43 199.984 1907.88 199.75 1907.13 199.587L1904.34 199.001C1902.77 198.674 1901.6 198.124 1900.85 197.349C1900.1 196.568 1899.73 195.581 1899.73 194.388C1899.73 193.379 1900 192.506 1900.55 191.767C1901.11 191.021 1901.89 190.446 1902.89 190.041C1903.89 189.629 1905.04 189.423 1906.35 189.423C1908.27 189.423 1909.78 189.832 1910.88 190.648C1911.98 191.465 1912.67 192.57 1912.93 193.962ZM1918.84 206.234C1918.19 206.234 1917.64 206.007 1917.18 205.553C1916.72 205.098 1916.49 204.544 1916.5 203.891C1916.49 203.251 1916.72 202.705 1917.18 202.25C1917.64 201.795 1918.19 201.568 1918.84 201.568C1919.46 201.568 1920.01 201.795 1920.47 202.25C1920.94 202.705 1921.18 203.251 1921.18 203.891C1921.18 204.324 1921.06 204.718 1920.84 205.073C1920.63 205.428 1920.35 205.712 1919.99 205.925C1919.64 206.131 1919.26 206.234 1918.84 206.234ZM1918.84 194.558C1918.19 194.558 1917.64 194.331 1917.18 193.876C1916.72 193.415 1916.49 192.861 1916.5 192.214C1916.49 191.575 1916.72 191.028 1917.18 190.574C1917.64 190.112 1918.19 189.881 1918.84 189.881C1919.46 189.881 1920.01 190.112 1920.47 190.574C1920.94 191.028 1921.18 191.575 1921.18 192.214C1921.18 192.641 1921.06 193.031 1920.84 193.386C1920.63 193.741 1920.35 194.026 1919.99 194.239C1919.64 194.452 1919.26 194.558 1918.84 194.558Z" fill="white"/>
<path d="M1856.53 251.882V262.151L1860.12 264.411C1860.25 264.439 1860.39 264.439 1860.52 264.411L1875.96 253.997C1875.95 253.491 1875.77 253.005 1875.44 252.62C1875.11 252.235 1874.66 251.974 1874.17 251.882H1856.53Z" fill="#5792EB"/>
<path d="M1856.53 265.982L1859.81 268.232C1859.96 268.325 1860.14 268.375 1860.32 268.375C1860.5 268.375 1860.67 268.325 1860.83 268.232C1860.26 268.571 1875.96 258.148 1875.96 258.148V277.022C1876 277.404 1875.96 277.791 1875.84 278.155C1875.71 278.519 1875.51 278.852 1875.24 279.129C1874.98 279.407 1874.65 279.623 1874.3 279.763C1873.94 279.903 1873.55 279.962 1873.17 279.938H1856.53V265.982H1856.53ZM1839.57 261.248C1839.03 261.245 1838.5 261.39 1838.03 261.666C1837.56 261.943 1837.17 262.341 1836.91 262.819C1836.2 264.085 1835.86 265.526 1835.93 266.978C1835.85 268.426 1836.19 269.865 1836.91 271.125C1837.17 271.583 1837.55 271.965 1838 272.232C1838.46 272.498 1838.97 272.641 1839.5 272.645C1840.02 272.649 1840.54 272.515 1841 272.255C1841.46 271.996 1841.84 271.62 1842.11 271.166C1842.82 269.912 1843.15 268.48 1843.07 267.041C1843.15 265.557 1842.83 264.079 1842.14 262.764C1841.89 262.302 1841.52 261.917 1841.07 261.649C1840.62 261.382 1840.1 261.243 1839.57 261.248Z" fill="#5792EB"/>
<path d="M1824.04 246.666V286.841L1854.6 293.25V240.75L1824.04 246.666ZM1844.49 273.546C1843.92 274.352 1843.16 275.006 1842.28 275.45C1841.39 275.895 1840.41 276.117 1839.43 276.097C1838.46 276.115 1837.51 275.899 1836.65 275.469C1835.79 275.038 1835.04 274.406 1834.48 273.626C1833.14 271.755 1832.47 269.487 1832.57 267.188C1832.46 264.776 1833.14 262.393 1834.52 260.408C1835.1 259.586 1835.87 258.92 1836.76 258.467C1837.66 258.015 1838.66 257.79 1839.66 257.812C1840.62 257.793 1841.56 258.009 1842.42 258.441C1843.27 258.873 1844 259.508 1844.55 260.289C1845.88 262.201 1846.54 264.497 1846.43 266.822C1846.55 269.216 1845.86 271.582 1844.49 273.546Z" fill="#5792EB"/>
</svg>
