<svg width="60" height="60" viewBox="0 0 60 60" fill="none" xmlns="http://www.w3.org/2000/svg">
<path d="M36.5325 14.8819V25.1513L40.125 27.4106C40.2547 27.4392 40.389 27.4392 40.5187 27.4106L55.965 16.9969C55.9537 16.4915 55.7688 16.0054 55.4413 15.6202C55.1139 15.2351 54.6639 14.9744 54.1668 14.8819H36.5325Z" fill="#5792EB"/>
<path d="M36.5324 28.9819L39.808 31.2319C39.9614 31.3253 40.1375 31.3747 40.3171 31.3747C40.4967 31.3747 40.6728 31.3253 40.8262 31.2319C40.2637 31.5713 55.963 21.1481 55.963 21.1481V40.0219C56.004 40.4043 55.9609 40.7911 55.8367 41.1551C55.7125 41.5192 55.5103 41.8517 55.2442 42.1294C54.9781 42.4071 54.6545 42.6233 54.2961 42.7629C53.9377 42.9025 53.5531 42.9621 53.1693 42.9375H36.5305V28.9819H36.5324ZM19.5749 24.2475C19.0307 24.2449 18.4958 24.3896 18.0271 24.6662C17.5584 24.9428 17.1732 25.341 16.9124 25.8188C16.2001 27.0851 15.8584 28.5262 15.9262 29.9775C15.8521 31.4258 16.1944 32.865 16.9124 34.125C17.1721 34.5831 17.5478 34.9647 18.0017 35.2315C18.4556 35.4984 18.9718 35.6411 19.4983 35.6453C20.0248 35.6495 20.5432 35.515 21.0013 35.2554C21.4594 34.9957 21.8411 34.6201 22.108 34.1663C22.8182 32.9121 23.1534 31.4804 23.0737 30.0413C23.155 28.557 22.8309 27.0785 22.1362 25.7644C21.8879 25.3022 21.5181 24.9167 21.0667 24.6494C20.6153 24.3821 20.0995 24.2431 19.5749 24.2475Z" fill="#5792EB"/>
<path d="M4.03687 9.66563V49.8413L34.5994 56.25V3.75L4.03687 9.66563ZM24.4894 36.5456C23.9176 37.3516 23.1574 38.0055 22.275 38.4503C21.3926 38.8951 20.4148 39.1173 19.4269 39.0975C18.4638 39.1146 17.5108 38.8989 16.649 38.4686C15.7871 38.0383 15.042 37.4063 14.4769 36.6263C13.1366 34.755 12.4661 32.4867 12.5737 30.1875C12.4597 27.7756 13.1423 25.3931 14.5162 23.4075C15.0952 22.5861 15.8673 21.9198 16.7646 21.4672C17.6618 21.0147 18.6566 20.7898 19.6612 20.8125C20.6174 20.7933 21.5636 21.0091 22.4168 21.441C23.2701 21.8728 24.0043 22.5075 24.555 23.2894C25.8819 25.2012 26.5409 27.4974 26.43 29.8219C26.5469 32.2163 25.8642 34.5817 24.4894 36.5456Z" fill="#5792EB"/>
</svg>
