<svg width="44" height="42" viewBox="0 0 44 42" fill="none" xmlns="http://www.w3.org/2000/svg">
<path d="M4.84922 20.8024L9.93064 25.5379L7.55914 27.7469L0.103638 20.8024L7.52555 13.8893L9.89706 16.0982L4.84922 20.8024ZM21.9276 4.8923L29.4529 11.9017L26.7404 14.4259L21.9276 9.94543L19.5897 12.1231L26.774 18.8149L34.1959 11.9017L21.9276 0.474426L9.89706 11.6803L29.4839 29.9245L22.0646 36.8377L14.7434 30.0184L17.4533 27.4942L22.0981 31.8182L24.4361 29.6406L17.4223 23.1076L10.0004 30.0208L21.9276 41.1304L33.9582 29.9245L14.5057 11.8055L21.9276 4.8923ZM12.6096 18.6248L10.2716 20.8024L12.6431 23.0114L14.9811 20.8337L12.6096 18.6248ZM31.4162 23.1389L33.7567 20.9612L31.3826 18.7523L29.0447 20.93L31.4162 23.1389ZM36.4666 14.0168L34.0951 16.2257L39.143 20.93L34.0951 25.6318L36.3323 27.7156L43.7542 20.8024L36.4666 14.0168Z" fill="#004AAD"/>
</svg>
