<svg width="100" height="35" viewBox="0 0 100 35" fill="none" xmlns="http://www.w3.org/2000/svg">
<path d="M3.77698 17.5L7.82552 21.5767L5.93702 23.4783L0 17.5L5.91028 11.5486L7.79877 13.4523L3.77698 17.5ZM17.3791 3.80534L23.3696 9.83753L21.2116 12.0126L17.3791 8.15341L15.5173 10.0281L21.2383 15.7889L27.1486 9.83753L17.3791 0L7.79877 9.64696L23.3963 25.353L17.486 31.3044L11.658 25.4359L13.816 23.2608L17.5128 26.9833L19.3745 25.1086L13.7893 19.4845L7.88106 25.4359L17.3791 35L26.9594 25.353L11.4688 9.75675L17.3791 3.80534ZM9.95881 15.6253L8.09501 17.5L9.98556 19.4016L11.8473 17.5269L9.95881 15.6253ZM24.9351 19.5114L26.7968 17.6367L24.9084 15.7351L23.0466 17.6098L24.9351 19.5114ZM28.9569 11.6584L27.0684 13.56L31.0881 17.6098L27.0684 21.6596L28.8499 23.4514L34.7581 17.5021L28.9569 11.6584Z" fill="#004AAD"/>
<path d="M43.5014 14.4922C42.9583 14.4922 42.4316 14.4197 41.9215 14.2768C41.4154 14.1277 41.0101 13.935 40.7036 13.6968L41.2467 12.487C41.5429 12.7087 41.8927 12.8848 42.3 13.0173C42.7053 13.1458 43.1105 13.2079 43.5178 13.2079C43.9663 13.2079 44.2996 13.1416 44.5135 13.009C44.7316 12.8723 44.8427 12.6921 44.8427 12.4705C44.8427 12.3047 44.7768 12.1701 44.6452 12.0644C44.5176 11.9547 44.3531 11.8656 44.1514 11.7993C43.954 11.733 43.6845 11.6584 43.345 11.5756C42.8225 11.4554 42.3946 11.3311 42.0614 11.2027C41.726 11.0763 41.438 10.8754 41.1973 10.5978C40.9608 10.3223 40.8435 9.95566 40.8435 9.49579C40.8435 9.09392 40.9505 8.72933 41.1644 8.40204C41.3825 8.07681 41.7096 7.81995 42.1436 7.63144C42.5818 7.43879 43.1146 7.34143 43.74 7.34143C44.1782 7.34143 44.6061 7.39529 45.0237 7.49886C45.4454 7.60451 45.8137 7.75573 46.1263 7.95459L45.6326 9.16435C45.0011 8.80598 44.3675 8.62576 43.7318 8.62576C43.2874 8.62576 42.9583 8.69826 42.7443 8.84119C42.5304 8.9862 42.4234 9.17678 42.4234 9.41293C42.4234 9.65115 42.5468 9.82723 42.7937 9.94323C43.0406 10.0592 43.415 10.1732 43.921 10.283C44.4415 10.4114 44.8694 10.5377 45.2047 10.6641C45.538 10.7863 45.8239 10.9831 46.0605 11.2524C46.3012 11.5238 46.4226 11.8884 46.4226 12.3462C46.4226 12.7439 46.3115 13.1064 46.0934 13.4316C45.8733 13.7589 45.5442 14.0179 45.106 14.2105C44.6657 14.3969 44.1309 14.4922 43.5014 14.4922Z" fill="white"/>
<path d="M54.6489 14.3762L54.6406 10.2249L52.6164 13.647H51.9005L49.8844 10.3161V14.3762H48.395V7.4574H49.7116L52.279 11.7578L54.8134 7.4574H56.1218L56.1383 14.3762H54.6489Z" fill="white"/>
<path d="M63.1819 12.893H59.9892L59.3803 14.3762H57.751L60.8121 7.4574H62.3837L65.4613 14.3762H63.7909L63.1819 12.893ZM62.68 11.675L61.5938 9.03173L60.4994 11.675H62.68Z" fill="white"/>
<path d="M66.7566 10.9789H69.5379V12.2135H66.7566V10.9789Z" fill="white"/>
<path d="M75.0268 14.4922C74.3232 14.4922 73.6896 14.341 73.1259 14.0365C72.5602 13.7279 72.1158 13.3032 71.7929 12.7605C71.4678 12.2198 71.3074 11.6046 71.3074 10.9127C71.3074 10.2291 71.4678 9.61593 71.7929 9.0732C72.1158 8.53254 72.5602 8.10996 73.1259 7.80545C73.6896 7.49679 74.3273 7.34143 75.035 7.34143C75.6275 7.34143 76.1644 7.44708 76.6478 7.6563C77.1292 7.86759 77.5324 8.17003 77.8574 8.56776L76.8371 9.51236C76.3763 8.9717 75.8003 8.70033 75.109 8.70033C74.6853 8.70033 74.3067 8.79562 73.9735 8.98206C73.6382 9.17056 73.3769 9.43364 73.1918 9.76922C73.0045 10.1069 72.912 10.488 72.912 10.9127C72.912 11.3436 73.0045 11.7289 73.1918 12.0644C73.3769 12.4021 73.6382 12.6652 73.9735 12.8516C74.3067 13.0401 74.6853 13.1333 75.109 13.1333C75.8003 13.1333 76.3763 12.8599 76.8371 12.313L77.8574 13.2576C77.5324 13.6616 77.1271 13.9681 76.6396 14.1774C76.1561 14.3866 75.6192 14.4922 75.0268 14.4922Z" fill="white"/>
<path d="M41.2468 20.9801H42.835V26.598H46.2828V27.8989H41.2468V20.9801Z" fill="white"/>
<path d="M53.3853 26.6146V27.8989H48.0613V20.9801H53.2536V22.2644H49.6412V23.7642H52.8339V25.0154H49.6412V26.6146H53.3853Z" fill="white"/>
<path d="M60.0594 26.4157H56.8666L56.2577 27.8989H54.6284L57.6895 20.9801H59.2612L62.3387 27.8989H60.6683L60.0594 26.4157ZM59.5574 25.1977L58.4712 22.5544L57.3768 25.1977H59.5574Z" fill="white"/>
<path d="M68.3164 27.8989L66.9916 25.9683H65.5269V27.8989H63.9387V20.9801H66.9093C67.5182 20.9801 68.0469 21.0837 68.4974 21.2867C68.9459 21.4918 69.2915 21.7818 69.5343 22.1567C69.7749 22.5337 69.8963 22.977 69.8963 23.4908C69.8963 24.0045 69.7729 24.4499 69.526 24.8248C69.2833 25.1956 68.9356 25.4794 68.481 25.6783L70.028 27.8989H68.3164ZM68.2917 23.4908C68.2917 23.1055 68.1642 22.8072 67.9132 22.5959C67.6663 22.3866 67.3043 22.281 66.827 22.281H65.5269V24.6922H66.827C67.3043 24.6922 67.6663 24.5886 67.9132 24.3774C68.1642 24.1681 68.2917 23.8719 68.2917 23.4908Z" fill="white"/>
<path d="M78.3428 20.9801V27.8989H77.0344L73.6112 23.6979V27.8989H72.0396V20.9801H73.3561L76.7711 25.1811V20.9801H78.3428Z" fill="white"/>
<path d="M80.8572 20.9801H82.4453V27.8989H80.8572V20.9801Z" fill="white"/>
<path d="M91.2646 20.9801V27.8989H89.9563L86.5331 23.6979V27.8989H84.9614V20.9801H86.278L89.6929 25.1811V20.9801H91.2646Z" fill="white"/>
<path d="M98.42 24.3277H99.8765V27.1366C99.502 27.4184 99.07 27.6379 98.5763 27.7912C98.0867 27.9404 97.593 28.0149 97.0951 28.0149C96.3813 28.0149 95.7395 27.8637 95.1696 27.5592C94.6039 27.2506 94.1595 26.8259 93.8366 26.2832C93.5115 25.7425 93.3511 25.1273 93.3511 24.4354C93.3511 23.7518 93.5115 23.1386 93.8366 22.5959C94.1595 22.0552 94.6101 21.6327 95.1861 21.3282C95.7621 21.0195 96.408 20.8641 97.1281 20.8641C97.7308 20.8641 98.276 20.9677 98.7656 21.1707C99.2593 21.3758 99.6707 21.672 99.9999 22.0573L98.9795 23.0019C98.4899 22.484 97.8974 22.223 97.2021 22.223C96.7619 22.223 96.3731 22.3183 96.0336 22.5048C95.6921 22.6871 95.4268 22.9481 95.2355 23.2836C95.0482 23.6213 94.9557 24.0045 94.9557 24.4354C94.9557 24.8663 95.0482 25.2516 95.2355 25.5871C95.4268 25.9248 95.6901 26.1879 96.0254 26.3743C96.3648 26.5628 96.7516 26.656 97.1857 26.656C97.6403 26.656 98.0517 26.5566 98.42 26.3577V24.3277Z" fill="white"/>
</svg>
