<svg width="33" height="33" viewBox="0 0 33 33" fill="none" xmlns="http://www.w3.org/2000/svg">
<path d="M11.1375 33C10.6486 33 10.1823 32.9083 9.73867 32.725C9.29622 32.5417 8.90695 32.2819 8.57083 31.9458L1.05417 24.4292C0.718056 24.0931 0.458334 23.7038 0.275 23.2613C0.0916668 22.8177 0 22.3514 0 21.8625V11.1375C0 10.6486 0.0916668 10.1823 0.275 9.73867C0.458334 9.29622 0.718056 8.90695 1.05417 8.57083L8.57083 1.05417C8.90695 0.718056 9.29622 0.458334 9.73867 0.275C10.1823 0.0916668 10.6486 0 11.1375 0H21.8625C22.3514 0 22.8177 0.0916668 23.2613 0.275C23.7038 0.458334 24.0931 0.718056 24.4292 1.05417L31.9458 8.57083C32.2819 8.90695 32.5417 9.29622 32.725 9.73867C32.9083 10.1823 33 10.6486 33 11.1375V21.8625C33 22.3514 32.9083 22.8177 32.725 23.2613C32.5417 23.7038 32.2819 24.0931 31.9458 24.4292L24.4292 31.9458C24.0931 32.2819 23.7038 32.5417 23.2613 32.725C22.8177 32.9083 22.3514 33 21.8625 33H11.1375ZM16.5 19.0667L20.4875 23.0542C20.8236 23.3903 21.2361 23.5583 21.725 23.5583C22.2139 23.5583 22.6417 23.375 23.0083 23.0083C23.3444 22.6722 23.5125 22.2444 23.5125 21.725C23.5125 21.2056 23.3444 20.7778 23.0083 20.4417L19.0667 16.5L23.0542 12.5125C23.3903 12.1764 23.5583 11.7639 23.5583 11.275C23.5583 10.7861 23.375 10.3583 23.0083 9.99167C22.6722 9.65556 22.2444 9.4875 21.725 9.4875C21.2056 9.4875 20.7778 9.65556 20.4417 9.99167L16.5 13.9333L12.5125 9.94583C12.1764 9.60972 11.7639 9.44167 11.275 9.44167C10.7861 9.44167 10.3583 9.625 9.99167 9.99167C9.65556 10.3278 9.4875 10.7556 9.4875 11.275C9.4875 11.7944 9.65556 12.2222 9.99167 12.5583L13.9333 16.5L9.94583 20.4875C9.60972 20.8236 9.44167 21.2361 9.44167 21.725C9.44167 22.2139 9.625 22.6417 9.99167 23.0083C10.3278 23.3444 10.7556 23.5125 11.275 23.5125C11.7944 23.5125 12.2222 23.3444 12.5583 23.0083L16.5 19.0667ZM11.1833 29.3333H21.8167L29.3333 21.8167V11.1833L21.8167 3.66667H11.1833L3.66667 11.1833V21.8167L11.1833 29.3333Z" fill="white"/>
</svg>
