<svg width="29" height="28" viewBox="0 0 29 28" fill="none" xmlns="http://www.w3.org/2000/svg">
<path d="M2.50005 27.2875C1.95004 27.4708 1.4688 27.3562 1.0563 26.9437C0.643795 26.5312 0.529212 26.05 0.712545 25.5L5.14692 13.0906C5.49067 12.1281 6.15525 11.5382 7.14067 11.321C8.12609 11.1028 8.974 11.3489 9.68442 12.0594L15.9407 18.3156C16.6511 19.026 16.8972 19.8739 16.679 20.8594C16.4618 21.8448 15.8719 22.5094 14.9094 22.8531L2.50005 27.2875ZM16.2844 14.5343C16.0782 14.3281 15.975 14.0875 15.975 13.8125C15.975 13.5375 16.0782 13.2969 16.2844 13.0906L23.2625 6.11248C23.9959 5.37914 24.8782 5.01248 25.9094 5.01248C26.9407 5.01248 27.823 5.37914 28.5563 6.11248L28.6938 6.24998C28.8771 6.43331 28.9688 6.66248 28.9688 6.93748C28.9688 7.21248 28.8657 7.4531 28.6594 7.65935C28.4532 7.8656 28.2125 7.96873 27.9375 7.96873C27.6625 7.96873 27.4219 7.8656 27.2157 7.65935L27.1125 7.55623C26.7917 7.23539 26.3907 7.07498 25.9094 7.07498C25.4282 7.07498 25.0271 7.23539 24.7063 7.55623L17.6938 14.5687C17.5105 14.7521 17.2813 14.8437 17.0063 14.8437C16.7313 14.8437 16.4907 14.7406 16.2844 14.5343V14.5343ZM10.7844 9.03435C10.5782 8.8281 10.475 8.58748 10.475 8.31248C10.475 8.03748 10.5782 7.79685 10.7844 7.5906L10.8875 7.48748C11.2084 7.16664 11.3688 6.77706 11.3688 6.31873C11.3688 5.86039 11.2084 5.47081 10.8875 5.14998L10.6813 4.94373C10.498 4.76039 10.4063 4.53123 10.4063 4.25623C10.4063 3.98123 10.5094 3.7406 10.7157 3.53435C10.9219 3.3281 11.1625 3.22498 11.4375 3.22498C11.7125 3.22498 11.9532 3.3281 12.1594 3.53435L12.3313 3.70623C13.0646 4.43956 13.4313 5.31039 13.4313 6.31873C13.4313 7.32706 13.0646 8.19789 12.3313 8.93123L12.1938 9.06873C12.0105 9.25206 11.7813 9.34373 11.5063 9.34373C11.2313 9.34373 10.9907 9.2406 10.7844 9.03435V9.03435ZM13.5344 11.7843C13.3282 11.5781 13.225 11.3375 13.225 11.0625C13.225 10.7875 13.3282 10.5469 13.5344 10.3406L17.7625 6.11248C18.0834 5.79164 18.2438 5.3906 18.2438 4.90935C18.2438 4.4281 18.0834 4.02706 17.7625 3.70623L16.25 2.19373C16.0667 2.01039 15.975 1.78123 15.975 1.50623C15.975 1.23123 16.0782 0.990601 16.2844 0.784351C16.4907 0.578101 16.7313 0.474976 17.0063 0.474976C17.2813 0.474976 17.5219 0.578101 17.7282 0.784351L19.2063 2.26248C19.9396 2.99581 20.3063 3.8781 20.3063 4.90935C20.3063 5.9406 19.9396 6.82289 19.2063 7.55623L14.9438 11.8187C14.7605 12.0021 14.5313 12.0937 14.2563 12.0937C13.9813 12.0937 13.7407 11.9906 13.5344 11.7843V11.7843ZM19.0344 17.2843C18.8282 17.0781 18.725 16.8375 18.725 16.5625C18.725 16.2875 18.8282 16.0469 19.0344 15.8406L20.5125 14.3625C21.2459 13.6291 22.1282 13.2625 23.1594 13.2625C24.1907 13.2625 25.073 13.6291 25.8063 14.3625L27.3188 15.875C27.5021 16.0583 27.5938 16.2875 27.5938 16.5625C27.5938 16.8375 27.4907 17.0781 27.2844 17.2843C27.0782 17.4906 26.8375 17.5937 26.5625 17.5937C26.2875 17.5937 26.0469 17.4906 25.8407 17.2843L24.3625 15.8062C24.0417 15.4854 23.6407 15.325 23.1594 15.325C22.6782 15.325 22.2771 15.4854 21.9563 15.8062L20.4438 17.3187C20.2605 17.5021 20.0313 17.5937 19.7563 17.5937C19.4813 17.5937 19.2407 17.4906 19.0344 17.2843V17.2843Z" fill="white"/>
</svg>
