<svg width="194" height="198" viewBox="0 0 388 396" fill="none" xmlns="http://www.w3.org/2000/svg">
<path d="M87.9386 197.884L95.8926 206.002L92.1823 209.789L80.5181 197.884L92.1298 186.033L95.84 189.824L87.9386 197.884ZM114.662 170.614L126.431 182.626L122.192 186.957L114.662 179.272L111.004 183.006L122.244 194.477L133.856 182.626L114.662 163.036L95.84 182.247L126.484 213.522L114.872 225.373L103.422 213.687L107.662 209.356L114.925 216.769L118.582 213.036L107.609 201.836L96.0017 213.687L114.662 232.732L133.484 213.522L103.05 182.465L114.662 170.614ZM100.084 194.151L96.422 197.884L100.136 201.671L103.794 197.938L100.084 194.151ZM129.507 201.89L133.165 198.157L129.455 194.37L125.797 198.103L129.507 201.89ZM137.409 186.252L133.698 190.039L141.596 198.103L133.698 206.167L137.198 209.736L148.806 197.889L137.409 186.252Z" fill="#004AAD"/>
<path d="M165.983 191.895C164.916 191.895 163.882 191.751 162.879 191.466C161.885 191.169 161.089 190.785 160.487 190.311L161.554 187.902C162.136 188.343 162.823 188.694 163.623 188.958C164.419 189.214 165.216 189.338 166.016 189.338C166.897 189.338 167.552 189.206 167.972 188.942C168.4 188.669 168.619 188.31 168.619 187.869C168.619 187.539 168.489 187.271 168.231 187.061C167.98 186.842 167.657 186.665 167.261 186.533C166.873 186.401 166.343 186.252 165.676 186.087C164.65 185.848 163.809 185.6 163.154 185.345C162.496 185.093 161.93 184.693 161.457 184.14C160.992 183.591 160.762 182.861 160.762 181.946C160.762 181.145 160.972 180.419 161.392 179.768C161.821 179.12 162.463 178.608 163.316 178.233C164.177 177.849 165.224 177.656 166.452 177.656C167.313 177.656 168.154 177.763 168.974 177.969C169.803 178.179 170.526 178.481 171.141 178.877L170.171 181.286C168.93 180.572 167.685 180.213 166.436 180.213C165.563 180.213 164.916 180.357 164.496 180.642C164.076 180.931 163.866 181.31 163.866 181.781C163.866 182.255 164.108 182.606 164.593 182.837C165.078 183.068 165.814 183.294 166.808 183.513C167.831 183.769 168.671 184.02 169.33 184.272C169.985 184.515 170.547 184.907 171.011 185.444C171.484 185.984 171.723 186.71 171.723 187.622C171.723 188.414 171.504 189.135 171.076 189.783C170.644 190.435 169.997 190.95 169.136 191.334C168.271 191.705 167.22 191.895 165.983 191.895Z" fill="white"/>
<path d="M187.885 191.664L187.869 183.397L183.892 190.212H182.485L178.524 183.579V191.664H175.598V177.886H178.185L183.229 186.45L188.208 177.886H190.779L190.811 191.664H187.885Z" fill="white"/>
<path d="M204.649 188.71H198.376L197.18 191.664H193.979L199.993 177.886H203.081L209.127 191.664H205.845L204.649 188.71ZM203.663 186.285L201.529 181.021L199.379 186.285H203.663Z" fill="white"/>
<path d="M211.672 184.899H217.137V187.357H211.672V184.899Z" fill="white"/>
<path d="M227.92 191.895C226.538 191.895 225.293 191.594 224.186 190.988C223.074 190.373 222.201 189.527 221.567 188.447C220.928 187.37 220.613 186.145 220.613 184.767C220.613 183.406 220.928 182.185 221.567 181.104C222.201 180.027 223.074 179.186 224.186 178.58C225.293 177.965 226.546 177.656 227.936 177.656C229.1 177.656 230.155 177.866 231.105 178.283C232.051 178.703 232.843 179.306 233.481 180.098L231.477 181.979C230.571 180.902 229.44 180.362 228.082 180.362C227.249 180.362 226.506 180.551 225.851 180.923C225.192 181.298 224.679 181.822 224.315 182.49C223.947 183.162 223.765 183.921 223.765 184.767C223.765 185.625 223.947 186.392 224.315 187.061C224.679 187.733 225.192 188.257 225.851 188.628C226.506 189.003 227.249 189.189 228.082 189.189C229.44 189.189 230.571 188.645 231.477 187.556L233.481 189.437C232.843 190.241 232.047 190.851 231.089 191.268C230.139 191.685 229.084 191.895 227.92 191.895Z" fill="white"/>
<path d="M161.554 204.814H164.674V216.001H171.448V218.592H161.554V204.814Z" fill="white"/>
<path d="M185.402 216.034V218.592H174.942V204.814H185.144V207.372H178.046V210.358H184.319V212.85H178.046V216.034H185.402Z" fill="white"/>
<path d="M198.515 215.638H192.242L191.046 218.592H187.845L193.859 204.814H196.947L202.993 218.592H199.711L198.515 215.638ZM197.529 213.213L195.395 207.949L193.244 213.213H197.529Z" fill="white"/>
<path d="M214.737 218.592L212.134 214.747H209.256V218.592H206.136V204.814H211.972C213.169 204.814 214.207 205.021 215.093 205.425C215.974 205.833 216.653 206.411 217.13 207.157C217.602 207.908 217.841 208.791 217.841 209.814C217.841 210.837 217.598 211.724 217.113 212.47C216.636 213.209 215.953 213.774 215.06 214.17L218.1 218.592H214.737ZM214.688 209.814C214.688 209.047 214.438 208.453 213.945 208.032C213.46 207.615 212.748 207.405 211.811 207.405H209.256V212.206H211.811C212.748 212.206 213.46 212 213.945 211.579C214.438 211.163 214.688 210.573 214.688 209.814Z" fill="white"/>
<path d="M234.435 204.814V218.592H231.864L225.139 210.226V218.592H222.051V204.814H224.638L231.347 213.18V204.814H234.435Z" fill="white"/>
<path d="M239.375 204.814H242.495V218.592H239.375V204.814Z" fill="white"/>
<path d="M259.823 204.814V218.592H257.252L250.527 210.226V218.592H247.439V204.814H250.026L256.735 213.18V204.814H259.823Z" fill="white"/>
<path d="M273.881 211.48H276.742V217.074C276.006 217.635 275.158 218.072 274.188 218.377C273.226 218.674 272.256 218.823 271.278 218.823C269.875 218.823 268.614 218.522 267.495 217.915C266.383 217.301 265.51 216.455 264.876 215.374C264.237 214.298 263.922 213.073 263.922 211.695C263.922 210.334 264.237 209.113 264.876 208.032C265.51 206.955 266.395 206.114 267.527 205.507C268.659 204.893 269.928 204.583 271.342 204.583C272.527 204.583 273.598 204.79 274.56 205.194C275.53 205.602 276.338 206.192 276.985 206.959L274.98 208.84C274.018 207.809 272.854 207.289 271.488 207.289C270.623 207.289 269.859 207.479 269.192 207.85C268.521 208.213 268 208.733 267.624 209.401C267.256 210.074 267.074 210.837 267.074 211.695C267.074 212.553 267.256 213.32 267.624 213.988C268 214.661 268.517 215.185 269.176 215.556C269.843 215.931 270.603 216.117 271.456 216.117C272.349 216.117 273.157 215.919 273.881 215.523V211.48Z" fill="white"/>
</svg>
